<svg width="25" height="23.53" viewBox="0 0 34 32" fill="none" xmlns="http://www.w3.org/2000/svg">
<path d="M3.34758 21.8353L3.80277 22.0422C3.85888 21.9188 3.86245 21.7778 3.81265 21.6517L3.34758 21.8353ZM1 27L0.544817 26.7931C0.463397 26.9722 0.4946 27.1824 0.624537 27.3302C0.754474 27.4779 0.958985 27.5358 1.14704 27.4779L1 27ZM7.5 25L7.64704 25.4779C7.82033 25.4246 7.95118 25.2816 7.989 25.1043C8.02682 24.927 7.9657 24.7431 7.82925 24.6237L7.5 25ZM7.46804 24.972L7.52063 24.4748C7.30385 24.4519 7.09721 24.572 7.0099 24.7718C6.92259 24.9715 6.97474 25.2048 7.13879 25.3483L7.46804 24.972ZM3.5 10C3.5 7.51472 5.51472 5.5 8 5.5V4.5C4.96243 4.5 2.5 6.96243 2.5 10H3.5ZM3.5 20V10H2.5V20H3.5ZM3.81265 21.6517C3.61102 21.141 3.5 20.5841 3.5 20H2.5C2.5 20.7118 2.63548 21.3932 2.88252 22.0189L3.81265 21.6517ZM1.45518 27.2069L3.80277 22.0422L2.8924 21.6284L0.544817 26.7931L1.45518 27.2069ZM7.35296 24.5221L0.852957 26.5221L1.14704 27.4779L7.64704 25.4779L7.35296 24.5221ZM7.13879 25.3483L7.17075 25.3763L7.82925 24.6237L7.79729 24.5957L7.13879 25.3483ZM8 24.5C7.8379 24.5 7.67798 24.4915 7.52063 24.4748L7.41545 25.4693C7.60768 25.4896 7.80272 25.5 8 25.5V24.5ZM28 24.5H8V25.5H28V24.5ZM32.5 20C32.5 22.4853 30.4853 24.5 28 24.5V25.5C31.0376 25.5 33.5 23.0376 33.5 20H32.5ZM32.5 10V20H33.5V10H32.5ZM28 5.5C30.4853 5.5 32.5 7.51472 32.5 10H33.5C33.5 6.96243 31.0376 4.5 28 4.5V5.5ZM8 5.5H28V4.5H8V5.5Z" fill="#FFFFFF"/>
<path d="M13.7666 22.0127C13.7432 21.9658 13.7314 21.9131 13.7314 21.8545C13.7314 21.6494 13.8047 21.2861 13.9512 20.7646C14.1035 20.2432 14.3291 19.5312 14.6279 18.6289C14.7217 18.3477 14.8301 17.9932 14.9531 17.5654C15.082 17.1377 15.2168 16.6719 15.3574 16.168C15.498 15.6582 15.6445 15.125 15.7969 14.5684C15.9492 14.0059 16.0986 13.4551 16.2451 12.916C16.3916 12.3711 16.5293 11.8496 16.6582 11.3516C16.7871 10.8477 16.8984 10.3994 16.9922 10.0068C17.0918 9.61426 17.168 9.29199 17.2207 9.04004C17.2793 8.78223 17.3086 8.62695 17.3086 8.57422C17.3086 8.54492 17.2705 8.51855 17.1943 8.49512C17.1182 8.46582 17.0156 8.44238 16.8867 8.4248C16.7578 8.40137 16.6113 8.38379 16.4473 8.37207C16.2891 8.36035 16.1221 8.35449 15.9463 8.35449C15.7705 8.35449 15.5918 8.36621 15.4102 8.38965C15.2285 8.40723 15.0527 8.44531 14.8828 8.50391C14.7129 8.55664 14.5488 8.63281 14.3906 8.73242C14.2383 8.83203 14.1006 8.95801 13.9775 9.11035C13.8252 9.30371 13.7051 9.53516 13.6172 9.80469C13.5352 10.0684 13.4707 10.332 13.4238 10.5957C13.377 10.8535 13.3447 11.0879 13.3271 11.2988C13.3096 11.5098 13.292 11.6562 13.2744 11.7383C13.2393 11.9785 13.1689 12.0986 13.0635 12.0986C13.0166 12.0986 12.9756 12.0723 12.9404 12.0195C12.9111 11.9609 12.8965 11.8555 12.8965 11.7031C12.8965 11.5273 12.9053 11.3076 12.9229 11.0439C12.9463 10.7803 12.9668 10.5078 12.9844 10.2266C13.0078 9.93945 13.0283 9.6582 13.0459 9.38281C13.0693 9.10742 13.0811 8.86719 13.0811 8.66211C13.0811 8.24609 13.0693 7.90918 13.0459 7.65137C13.0225 7.39355 13.0107 7.18848 13.0107 7.03613C13.0107 6.91895 13.0342 6.86035 13.0811 6.86035C13.1221 6.86035 13.2129 6.91016 13.3535 7.00977C13.5 7.10937 13.7227 7.2207 14.0215 7.34375C14.3203 7.46094 14.7158 7.56934 15.208 7.66895C15.7002 7.76855 16.3154 7.81836 17.0537 7.81836C17.5107 7.81836 17.9268 7.79492 18.3018 7.74805C18.6768 7.70117 19.0049 7.64844 19.2861 7.58984C19.5732 7.53125 19.8135 7.47852 20.0068 7.43164C20.2061 7.38477 20.3525 7.36133 20.4463 7.36133C20.54 7.36133 20.5869 7.41113 20.5869 7.51074C20.5869 7.64551 20.5312 7.8623 20.4199 8.16113C20.3145 8.4541 20.1885 8.81152 20.042 9.2334C19.9072 9.62598 19.7373 10.0889 19.5322 10.6221C19.333 11.1494 19.1133 11.7295 18.873 12.3623C18.6328 12.9951 18.3809 13.6719 18.1172 14.3926C17.8535 15.1133 17.5898 15.8545 17.3262 16.6162C17.0859 17.3252 16.8779 17.9346 16.7021 18.4443C16.5264 18.9541 16.3828 19.3818 16.2715 19.7275C16.1602 20.0732 16.0781 20.3428 16.0254 20.5361C15.9727 20.7295 15.9463 20.8613 15.9463 20.9316C15.9463 20.9961 15.9727 21.0342 16.0254 21.0459C16.0781 21.0576 16.1396 21.0635 16.21 21.0635C16.3857 21.0635 16.6318 21.043 16.9482 21.002C17.2705 20.9609 17.6191 20.9053 17.9941 20.835C18.3691 20.7705 18.75 20.6914 19.1367 20.5977C19.5234 20.5098 19.8691 20.4131 20.1738 20.3076C20.6074 20.1611 20.9502 19.9736 21.2021 19.7451C21.46 19.5107 21.6533 19.2529 21.7822 18.9717C21.917 18.6904 22.002 18.3916 22.0371 18.0752C22.0781 17.7588 22.0986 17.4453 22.0986 17.1348C22.0986 16.9824 22.0928 16.8242 22.0811 16.6602C22.0693 16.4902 22.0547 16.3232 22.0371 16.1592C22.0195 15.9951 22.0049 15.8428 21.9932 15.7021C21.9814 15.5557 21.9756 15.4297 21.9756 15.3242C21.9756 15.1309 22.0107 15.0342 22.0811 15.0342C22.1396 15.0342 22.1924 15.0957 22.2393 15.2188C22.292 15.3359 22.3447 15.5059 22.3975 15.7285C22.4561 15.9512 22.5234 16.2266 22.5996 16.5547C22.6758 16.877 22.7666 17.2402 22.8721 17.6445C22.9893 18.0781 23.1006 18.4766 23.2061 18.8398C23.3115 19.2031 23.4053 19.5225 23.4873 19.7979C23.5693 20.0732 23.6338 20.3047 23.6807 20.4922C23.7275 20.6855 23.751 20.8262 23.751 20.9141C23.751 21.0137 23.7041 21.0635 23.6104 21.0635C23.5283 21.0635 23.4082 21.0518 23.25 21.0283C23.0977 21.0049 22.916 20.9756 22.7051 20.9404C22.5 20.9111 22.2715 20.8848 22.0195 20.8613C21.7676 20.8379 21.5068 20.8262 21.2373 20.8262C20.874 20.8262 20.458 20.8525 19.9893 20.9053C19.5264 20.9639 19.0371 21.04 18.5215 21.1338C18.0059 21.2275 17.4756 21.333 16.9307 21.4502C16.3916 21.5732 15.8584 21.6963 15.3311 21.8193C15.0381 21.8896 14.7803 21.9541 14.5576 22.0127C14.3408 22.0771 14.165 22.1094 14.0303 22.1094C13.9658 22.1094 13.9131 22.1035 13.8721 22.0918C13.8311 22.0801 13.7959 22.0537 13.7666 22.0127Z" fill="#FFFFFF"/>
</svg>
