<svg width="60" height="69" viewBox="0 0 60 69" fill="none" xmlns="http://www.w3.org/2000/svg">
<path d="M53.5714 30H50.3571V20.3571C50.3571 9.13393 41.2232 0 30 0C18.7768 0 9.64286 9.13393 9.64286 20.3571V30H6.42857C2.87946 30 0 32.8795 0 36.4286V62.1429C0 65.692 2.87946 68.5714 6.42857 68.5714H53.5714C57.1205 68.5714 60 65.692 60 62.1429V36.4286C60 32.8795 57.1205 30 53.5714 30ZM39.6429 30H20.3571V20.3571C20.3571 15.0402 24.683 10.7143 30 10.7143C35.317 10.7143 39.6429 15.0402 39.6429 20.3571V30Z" fill="black"/>
</svg>
