<svg xmlns="http://www.w3.org/2000/svg" width="20" height="26.36" viewBox="0 0 24 31" fill="none">
  <path d="M20 8.5C20 12.9183 17.5 15.5 12 15.5C6.5 15.5 4 12.9183 4 8.5C4 4.5 7.58172 0.5 12 0.5C16.4183 0.5 20 4.5 20 8.5Z" fill="white"/>
  <path d="M6.11025 17.6771C7.2205 17.6771 9.04961 18.5 12 18.5C14.9504 18.5 16.8237 17.677 17.9119 17.677C19 17.677 20.8387 19.183 21.8457 21.055C22.6761 22.5988 23.3209 24.433 22.8292 25.559C22.3375 26.685 20.4411 27.599 18.4036 28.374C16.1865 29.2173 14.4697 29.5 12.0111 29.5C9.55239 29.5 7.83555 29.2173 5.6185 28.374C3.58099 27.599 1.68463 26.685 1.19291 25.559C0.701192 24.433 1.19286 22.744 2.17636 21.055C3.15985 19.366 5 17.677 6.11025 17.6771Z" fill="white" stroke="white" stroke-width="2"/>
</svg>