<svg xmlns="http://www.w3.org/2000/svg" width="25" height="24.14" viewBox="0 0 31 29" fill="none">
  <path d="M6.21767 9.58835C5.84639 7.73197 7.26627 6 9.15941 6H26.8406C28.7337 6 30.1536 7.73197 29.7823 9.58835L27.9823 18.5883C27.7019 19.9906 26.4706 21 25.0406 21H10.9594C9.52937 21 8.29812 19.9906 8.01767 18.5883L6.21767 9.58835Z" fill="white"/>
  <path d="M16.5 27C16.5 28.1046 15.6046 29 14.5 29C13.3954 29 12.5 28.1046 12.5 27C12.5 25.8954 13.3954 25 14.5 25C15.6046 25 16.5 25.8954 16.5 27Z" fill="white"/>
  <path d="M23.5 27C23.5 28.1046 22.6046 29 21.5 29C20.3954 29 19.5 28.1046 19.5 27C19.5 25.8954 20.3954 25 21.5 25C22.6046 25 23.5 25.8954 23.5 27Z" fill="white"/>
  <path d="M9.5 4H9.11553C8.70672 4 8.29945 4.05014 7.90285 4.14929L7.61267 4.22183C5.73664 4.69084 4.34189 6.26485 4.10204 8.18369V8.18369C4.03453 8.72376 4.0617 9.27147 4.18232 9.80221L6.36829 19.4205C6.45578 19.8054 6.58924 20.1785 6.76578 20.5316L6.91459 20.8292C7.29459 21.5892 7.91083 22.2054 8.67082 22.5854V22.5854C9.21611 22.8581 9.8174 23 10.4271 23H25.5" stroke="white" stroke-width="2" stroke-linecap="round" stroke-linejoin="round"/>
  <path d="M6.5 4L5.5 1H1.5" stroke="white" stroke-width="2" stroke-linecap="round" stroke-linejoin="round"/>
</svg>